<mxfile host="app.diagrams.net" agent="Mozilla/5.0 (Macintosh; Intel Mac OS X 10_15_7) AppleWebKit/537.36 (KHTML, like Gecko) Chrome/131.0.0.0 Safari/537.36" version="26.0.10">
  <diagram name="Page-1" id="nCQ7B-0Um4C6AK3pkGvt">
    <mxGraphModel dx="751" dy="424" grid="1" gridSize="10" guides="1" tooltips="1" connect="1" arrows="1" fold="1" page="1" pageScale="1" pageWidth="850" pageHeight="1100" math="0" shadow="0">
      <root>
        <mxCell id="0" />
        <mxCell id="1" parent="0" />
        <mxCell id="VWmHd7WeT0mjH81mmsOp-3" value="" style="rounded=0;whiteSpace=wrap;html=1;" vertex="1" parent="1">
          <mxGeometry x="40" y="40" width="680" height="360" as="geometry" />
        </mxCell>
        <mxCell id="VWmHd7WeT0mjH81mmsOp-4" value="&lt;font style=&quot;font-size: 30px;&quot;&gt;Title &quot;Giphverse&quot;&lt;/font&gt;" style="text;strokeColor=none;align=center;fillColor=none;html=1;verticalAlign=middle;whiteSpace=wrap;rounded=0;" vertex="1" parent="1">
          <mxGeometry x="50" y="50" width="250" height="40" as="geometry" />
        </mxCell>
        <mxCell id="VWmHd7WeT0mjH81mmsOp-5" value="Menu Bar &quot;Home&quot; &quot;Contact&quot; &quot;Trending&quot;" style="text;strokeColor=none;align=center;fillColor=none;html=1;verticalAlign=middle;whiteSpace=wrap;rounded=0;" vertex="1" parent="1">
          <mxGeometry x="460" y="70" width="220" height="30" as="geometry" />
        </mxCell>
        <mxCell id="VWmHd7WeT0mjH81mmsOp-6" value="" style="rounded=1;whiteSpace=wrap;html=1;" vertex="1" parent="1">
          <mxGeometry x="60" y="100" width="290" height="20" as="geometry" />
        </mxCell>
        <mxCell id="VWmHd7WeT0mjH81mmsOp-7" value="Search Bar" style="text;strokeColor=none;align=center;fillColor=none;html=1;verticalAlign=middle;whiteSpace=wrap;rounded=0;" vertex="1" parent="1">
          <mxGeometry x="70" y="95" width="80" height="30" as="geometry" />
        </mxCell>
        <mxCell id="VWmHd7WeT0mjH81mmsOp-8" value="" style="rounded=1;whiteSpace=wrap;html=1;" vertex="1" parent="1">
          <mxGeometry x="360" y="100" width="60" height="20" as="geometry" />
        </mxCell>
        <mxCell id="VWmHd7WeT0mjH81mmsOp-9" value="&lt;font style=&quot;font-size: 8px;&quot;&gt;Search Button&lt;/font&gt;" style="text;strokeColor=none;align=center;fillColor=none;html=1;verticalAlign=middle;whiteSpace=wrap;rounded=0;" vertex="1" parent="1">
          <mxGeometry x="360" y="95" width="60" height="30" as="geometry" />
        </mxCell>
        <mxCell id="VWmHd7WeT0mjH81mmsOp-11" value="" style="whiteSpace=wrap;html=1;aspect=fixed;" vertex="1" parent="1">
          <mxGeometry x="70" y="140" width="80" height="80" as="geometry" />
        </mxCell>
        <mxCell id="VWmHd7WeT0mjH81mmsOp-12" value="" style="whiteSpace=wrap;html=1;aspect=fixed;" vertex="1" parent="1">
          <mxGeometry x="160" y="140" width="80" height="80" as="geometry" />
        </mxCell>
        <mxCell id="VWmHd7WeT0mjH81mmsOp-13" value="" style="whiteSpace=wrap;html=1;aspect=fixed;" vertex="1" parent="1">
          <mxGeometry x="250" y="140" width="80" height="80" as="geometry" />
        </mxCell>
        <mxCell id="VWmHd7WeT0mjH81mmsOp-14" value="" style="whiteSpace=wrap;html=1;aspect=fixed;" vertex="1" parent="1">
          <mxGeometry x="430" y="140" width="80" height="80" as="geometry" />
        </mxCell>
        <mxCell id="VWmHd7WeT0mjH81mmsOp-15" value="" style="whiteSpace=wrap;html=1;aspect=fixed;" vertex="1" parent="1">
          <mxGeometry x="520" y="140" width="80" height="80" as="geometry" />
        </mxCell>
        <mxCell id="VWmHd7WeT0mjH81mmsOp-16" value="" style="whiteSpace=wrap;html=1;aspect=fixed;" vertex="1" parent="1">
          <mxGeometry x="610" y="140" width="80" height="80" as="geometry" />
        </mxCell>
        <mxCell id="VWmHd7WeT0mjH81mmsOp-17" value="" style="whiteSpace=wrap;html=1;aspect=fixed;" vertex="1" parent="1">
          <mxGeometry x="340" y="140" width="80" height="80" as="geometry" />
        </mxCell>
        <mxCell id="VWmHd7WeT0mjH81mmsOp-19" value="" style="whiteSpace=wrap;html=1;aspect=fixed;" vertex="1" parent="1">
          <mxGeometry x="70" y="225" width="80" height="80" as="geometry" />
        </mxCell>
        <mxCell id="VWmHd7WeT0mjH81mmsOp-20" value="" style="whiteSpace=wrap;html=1;aspect=fixed;" vertex="1" parent="1">
          <mxGeometry x="160" y="225" width="80" height="80" as="geometry" />
        </mxCell>
        <mxCell id="VWmHd7WeT0mjH81mmsOp-21" value="" style="whiteSpace=wrap;html=1;aspect=fixed;" vertex="1" parent="1">
          <mxGeometry x="250" y="225" width="80" height="80" as="geometry" />
        </mxCell>
        <mxCell id="VWmHd7WeT0mjH81mmsOp-22" value="" style="whiteSpace=wrap;html=1;aspect=fixed;" vertex="1" parent="1">
          <mxGeometry x="340" y="225" width="80" height="80" as="geometry" />
        </mxCell>
        <mxCell id="VWmHd7WeT0mjH81mmsOp-23" value="" style="whiteSpace=wrap;html=1;aspect=fixed;" vertex="1" parent="1">
          <mxGeometry x="430" y="225" width="80" height="80" as="geometry" />
        </mxCell>
        <mxCell id="VWmHd7WeT0mjH81mmsOp-24" value="" style="whiteSpace=wrap;html=1;aspect=fixed;" vertex="1" parent="1">
          <mxGeometry x="520" y="225" width="80" height="80" as="geometry" />
        </mxCell>
        <mxCell id="VWmHd7WeT0mjH81mmsOp-25" value="" style="whiteSpace=wrap;html=1;aspect=fixed;" vertex="1" parent="1">
          <mxGeometry x="610" y="225" width="80" height="80" as="geometry" />
        </mxCell>
        <mxCell id="VWmHd7WeT0mjH81mmsOp-26" value="" style="whiteSpace=wrap;html=1;aspect=fixed;" vertex="1" parent="1">
          <mxGeometry x="70" y="320" width="80" height="80" as="geometry" />
        </mxCell>
        <mxCell id="VWmHd7WeT0mjH81mmsOp-27" value="" style="whiteSpace=wrap;html=1;aspect=fixed;" vertex="1" parent="1">
          <mxGeometry x="160" y="320" width="80" height="80" as="geometry" />
        </mxCell>
        <mxCell id="VWmHd7WeT0mjH81mmsOp-28" value="" style="whiteSpace=wrap;html=1;aspect=fixed;" vertex="1" parent="1">
          <mxGeometry x="250" y="320" width="80" height="80" as="geometry" />
        </mxCell>
        <mxCell id="VWmHd7WeT0mjH81mmsOp-29" value="" style="whiteSpace=wrap;html=1;aspect=fixed;" vertex="1" parent="1">
          <mxGeometry x="340" y="320" width="80" height="80" as="geometry" />
        </mxCell>
        <mxCell id="VWmHd7WeT0mjH81mmsOp-30" value="" style="whiteSpace=wrap;html=1;aspect=fixed;" vertex="1" parent="1">
          <mxGeometry x="430" y="320" width="80" height="80" as="geometry" />
        </mxCell>
        <mxCell id="VWmHd7WeT0mjH81mmsOp-31" value="" style="whiteSpace=wrap;html=1;aspect=fixed;" vertex="1" parent="1">
          <mxGeometry x="520" y="320" width="80" height="80" as="geometry" />
        </mxCell>
        <mxCell id="VWmHd7WeT0mjH81mmsOp-32" value="" style="whiteSpace=wrap;html=1;aspect=fixed;" vertex="1" parent="1">
          <mxGeometry x="610" y="320" width="80" height="80" as="geometry" />
        </mxCell>
        <mxCell id="VWmHd7WeT0mjH81mmsOp-33" value="Webpage - Computer" style="text;strokeColor=none;align=center;fillColor=none;html=1;verticalAlign=middle;whiteSpace=wrap;rounded=0;fontSize=18;fontStyle=1" vertex="1" parent="1">
          <mxGeometry x="290" y="10" width="200" height="30" as="geometry" />
        </mxCell>
        <mxCell id="VWmHd7WeT0mjH81mmsOp-34" value="" style="rounded=0;whiteSpace=wrap;html=1;" vertex="1" parent="1">
          <mxGeometry x="160" y="420" width="290" height="480" as="geometry" />
        </mxCell>
        <mxCell id="VWmHd7WeT0mjH81mmsOp-36" value="&lt;font style=&quot;font-size: 15px;&quot;&gt;Title &quot;Giphverse&quot;&lt;/font&gt;" style="text;strokeColor=none;align=center;fillColor=none;html=1;verticalAlign=middle;whiteSpace=wrap;rounded=0;" vertex="1" parent="1">
          <mxGeometry x="110" y="420" width="250" height="40" as="geometry" />
        </mxCell>
        <mxCell id="VWmHd7WeT0mjH81mmsOp-37" value="" style="rounded=1;whiteSpace=wrap;html=1;" vertex="1" parent="1">
          <mxGeometry x="170" y="460" width="130" height="20" as="geometry" />
        </mxCell>
        <mxCell id="VWmHd7WeT0mjH81mmsOp-38" value="Search Bar" style="text;strokeColor=none;align=center;fillColor=none;html=1;verticalAlign=middle;whiteSpace=wrap;rounded=0;" vertex="1" parent="1">
          <mxGeometry x="170" y="455" width="80" height="30" as="geometry" />
        </mxCell>
        <mxCell id="VWmHd7WeT0mjH81mmsOp-41" value="" style="rounded=1;whiteSpace=wrap;html=1;" vertex="1" parent="1">
          <mxGeometry x="310" y="460" width="50" height="20" as="geometry" />
        </mxCell>
        <mxCell id="VWmHd7WeT0mjH81mmsOp-42" value="&lt;font&gt;Search Button&lt;/font&gt;" style="text;strokeColor=none;align=center;fillColor=none;html=1;verticalAlign=middle;whiteSpace=wrap;rounded=0;fontSize=10;" vertex="1" parent="1">
          <mxGeometry x="302.5" y="455" width="65" height="30" as="geometry" />
        </mxCell>
        <mxCell id="VWmHd7WeT0mjH81mmsOp-45" value="" style="line;strokeWidth=2;html=1;" vertex="1" parent="1">
          <mxGeometry x="410" y="435" width="20" height="10" as="geometry" />
        </mxCell>
        <mxCell id="VWmHd7WeT0mjH81mmsOp-46" value="" style="line;strokeWidth=2;html=1;" vertex="1" parent="1">
          <mxGeometry x="410" y="440" width="20" height="15" as="geometry" />
        </mxCell>
        <mxCell id="VWmHd7WeT0mjH81mmsOp-47" value="" style="line;strokeWidth=2;html=1;" vertex="1" parent="1">
          <mxGeometry x="410" y="450" width="20" height="10" as="geometry" />
        </mxCell>
        <mxCell id="VWmHd7WeT0mjH81mmsOp-48" value="Hamburger menu that expands and displays links" style="text;strokeColor=none;align=center;fillColor=none;html=1;verticalAlign=middle;whiteSpace=wrap;rounded=0;fontSize=9;" vertex="1" parent="1">
          <mxGeometry x="380" y="460" width="60" height="40" as="geometry" />
        </mxCell>
        <mxCell id="VWmHd7WeT0mjH81mmsOp-49" value="" style="whiteSpace=wrap;html=1;aspect=fixed;" vertex="1" parent="1">
          <mxGeometry x="175" y="510" width="80" height="80" as="geometry" />
        </mxCell>
        <mxCell id="VWmHd7WeT0mjH81mmsOp-50" value="" style="whiteSpace=wrap;html=1;aspect=fixed;" vertex="1" parent="1">
          <mxGeometry x="265" y="510" width="80" height="80" as="geometry" />
        </mxCell>
        <mxCell id="VWmHd7WeT0mjH81mmsOp-51" value="" style="whiteSpace=wrap;html=1;aspect=fixed;" vertex="1" parent="1">
          <mxGeometry x="355" y="510" width="80" height="80" as="geometry" />
        </mxCell>
        <mxCell id="VWmHd7WeT0mjH81mmsOp-52" value="" style="whiteSpace=wrap;html=1;aspect=fixed;" vertex="1" parent="1">
          <mxGeometry x="175" y="610" width="80" height="80" as="geometry" />
        </mxCell>
        <mxCell id="VWmHd7WeT0mjH81mmsOp-53" value="" style="whiteSpace=wrap;html=1;aspect=fixed;" vertex="1" parent="1">
          <mxGeometry x="265" y="610" width="80" height="80" as="geometry" />
        </mxCell>
        <mxCell id="VWmHd7WeT0mjH81mmsOp-54" value="" style="whiteSpace=wrap;html=1;aspect=fixed;" vertex="1" parent="1">
          <mxGeometry x="355" y="610" width="80" height="80" as="geometry" />
        </mxCell>
        <mxCell id="VWmHd7WeT0mjH81mmsOp-55" value="" style="whiteSpace=wrap;html=1;aspect=fixed;" vertex="1" parent="1">
          <mxGeometry x="175" y="700" width="80" height="80" as="geometry" />
        </mxCell>
        <mxCell id="VWmHd7WeT0mjH81mmsOp-56" value="" style="whiteSpace=wrap;html=1;aspect=fixed;" vertex="1" parent="1">
          <mxGeometry x="265" y="700" width="80" height="80" as="geometry" />
        </mxCell>
        <mxCell id="VWmHd7WeT0mjH81mmsOp-57" value="" style="whiteSpace=wrap;html=1;aspect=fixed;" vertex="1" parent="1">
          <mxGeometry x="355" y="700" width="80" height="80" as="geometry" />
        </mxCell>
        <mxCell id="VWmHd7WeT0mjH81mmsOp-58" value="" style="whiteSpace=wrap;html=1;aspect=fixed;" vertex="1" parent="1">
          <mxGeometry x="175" y="800" width="80" height="80" as="geometry" />
        </mxCell>
        <mxCell id="VWmHd7WeT0mjH81mmsOp-59" value="" style="whiteSpace=wrap;html=1;aspect=fixed;" vertex="1" parent="1">
          <mxGeometry x="265" y="800" width="80" height="80" as="geometry" />
        </mxCell>
        <mxCell id="VWmHd7WeT0mjH81mmsOp-60" value="" style="whiteSpace=wrap;html=1;aspect=fixed;" vertex="1" parent="1">
          <mxGeometry x="355" y="800" width="80" height="80" as="geometry" />
        </mxCell>
        <mxCell id="VWmHd7WeT0mjH81mmsOp-61" value="Gifs Displayed in a grid" style="text;strokeColor=none;align=center;fillColor=none;html=1;verticalAlign=middle;whiteSpace=wrap;rounded=0;fontSize=30;" vertex="1" parent="1">
          <mxGeometry x="270" y="250" width="220" height="30" as="geometry" />
        </mxCell>
        <mxCell id="VWmHd7WeT0mjH81mmsOp-62" value="Gifs Displayed in a grid" style="text;strokeColor=none;align=center;fillColor=none;html=1;verticalAlign=middle;whiteSpace=wrap;rounded=0;fontSize=30;" vertex="1" parent="1">
          <mxGeometry x="195" y="680" width="220" height="30" as="geometry" />
        </mxCell>
        <mxCell id="VWmHd7WeT0mjH81mmsOp-63" value="Media View - for Phones" style="text;strokeColor=none;align=center;fillColor=none;html=1;verticalAlign=middle;whiteSpace=wrap;rounded=0;fontStyle=1" vertex="1" parent="1">
          <mxGeometry x="230" y="400" width="150" height="30" as="geometry" />
        </mxCell>
      </root>
    </mxGraphModel>
  </diagram>
</mxfile>
